<svg xmlns="http://www.w3.org/2000/svg" width="359" height="112" viewBox="0 0 359 112" fill="none">
<path d="M53.8915 102.29C54.3155 101.961 54.6859 101.567 54.9893 101.122C55.3001 100.665 55.5371 100.161 55.6917 99.63C55.8503 99.0543 55.9291 98.4593 55.9258 97.8619C55.9362 97.069 55.7851 96.2824 55.4818 95.5503C55.1936 94.8671 54.7675 94.2512 54.2305 93.7417C53.6769 93.2338 53.0297 92.8397 52.3254 92.5819C51.5484 92.3034 50.7284 92.166 49.9036 92.1763H42.5332V109.322H46.069V103.531H49.177L52.3577 109.209L52.4303 109.338H56.4666L52.729 103.004C53.1437 102.814 53.534 102.574 53.8915 102.29ZM46.069 95.307H49.8067C50.1603 95.305 50.5111 95.3711 50.84 95.5017C51.1427 95.6189 51.4177 95.7985 51.6473 96.0289C51.8879 96.2698 52.0777 96.5571 52.2053 96.8734C52.3329 97.1898 52.3957 97.5287 52.3899 97.87C52.3971 98.2292 52.3283 98.5858 52.1881 98.9163C52.0682 99.2207 51.8868 99.4969 51.6553 99.7273C51.4209 99.9475 51.1469 100.121 50.8481 100.238C50.5206 100.363 50.1731 100.426 49.8228 100.425H46.069V95.307Z" fill="#02173D"/>
<path d="M69.319 102.395H76.5037V99.2726H69.319V95.3227H77.6339V92.1758H65.7832V109.322H77.7469V106.183H69.319V102.395Z" fill="#02173D"/>
<path d="M92.9494 92.168L85.9988 108.973L85.8535 109.322H89.6154L90.9151 106.151H98.1805L99.4883 109.322H103.242L96.1381 92.168H92.9494ZM94.5639 97.2615L96.8808 103.004H92.1421L94.5639 97.2615Z" fill="#02173D"/>
<path d="M125.452 94.3932C124.618 93.6606 123.642 93.1085 122.586 92.7711C121.436 92.3887 120.23 92.1996 119.018 92.2115H112.334V109.357H119.05C120.347 109.378 121.638 109.167 122.861 108.733C123.919 108.354 124.884 107.754 125.694 106.973C126.467 106.207 127.062 105.279 127.438 104.256C127.845 103.142 128.048 101.963 128.035 100.776C128.056 99.5229 127.822 98.2784 127.349 97.1184C126.921 96.0825 126.274 95.1526 125.452 94.3932ZM115.87 95.3097H118.954C119.779 95.2968 120.599 95.4342 121.375 95.7153C122.018 95.9397 122.6 96.3106 123.076 96.7989C123.553 97.2871 123.91 97.8795 124.12 98.5297C124.35 99.2588 124.464 100.02 124.459 100.784C124.472 101.565 124.349 102.342 124.096 103.08C123.869 103.712 123.508 104.288 123.038 104.767C122.548 105.24 121.962 105.599 121.319 105.821C120.538 106.08 119.719 106.203 118.897 106.186H115.813L115.87 95.3097Z" fill="#02173D"/>
<path d="M143.001 99.4916L138.641 92.1758H134.5L141.233 102.817V109.322H144.768V102.801L151.501 92.1758H147.344L143.001 99.4916Z" fill="#02173D"/>
<path d="M156.225 111.998H158.913L161.238 106.418H157.799L156.225 111.998Z" fill="#02173D"/>
<path d="M195.699 100.571C195.103 100.15 194.447 99.822 193.753 99.5974C193.035 99.3703 192.268 99.1675 191.461 98.9972C190.885 98.9161 190.347 98.8188 189.846 98.7052C189.423 98.6142 189.011 98.4755 188.619 98.2916C188.327 98.1553 188.067 97.9559 187.86 97.7076C187.686 97.4748 187.6 97.1872 187.618 96.8965C187.617 96.6474 187.661 96.4001 187.747 96.1666C187.836 95.9263 187.99 95.7156 188.191 95.5583C188.462 95.3451 188.772 95.1879 189.103 95.096C190.1 94.8665 191.135 94.8665 192.131 95.096C192.655 95.2014 193.18 95.3312 193.681 95.4853C194.181 95.6394 194.649 95.8016 195.037 95.9638C195.364 96.0868 195.685 96.2276 195.998 96.3856L196.256 96.5234L197.273 93.482L197.063 93.3846C196.651 93.2062 196.256 93.0196 195.763 92.8331C195.271 92.6466 194.803 92.4681 194.302 92.314C193.774 92.1496 193.234 92.0223 192.688 91.9328C192.098 91.8342 191.501 91.7854 190.904 91.7868C189.87 91.7684 188.839 91.9023 187.844 92.1842C187.067 92.405 186.344 92.7862 185.721 93.3035C185.174 93.7714 184.75 94.3675 184.486 95.0392C184.222 95.7384 184.09 96.4812 184.098 97.2291C184.091 97.7344 184.193 98.2353 184.397 98.6971C184.595 99.1149 184.869 99.4917 185.204 99.8083C185.528 100.132 185.898 100.406 186.302 100.619C186.701 100.828 187.114 101.01 187.537 101.163C187.952 101.314 188.376 101.441 188.805 101.544L189.943 101.795C190.573 101.941 191.162 102.095 191.679 102.25C192.133 102.372 192.571 102.546 192.986 102.769C193.303 102.918 193.579 103.14 193.794 103.417C193.971 103.677 194.061 103.987 194.052 104.302C194.064 104.618 193.997 104.933 193.856 105.217C193.715 105.5 193.504 105.744 193.245 105.924C192.427 106.4 191.483 106.615 190.54 106.54C189.998 106.541 189.457 106.486 188.926 106.378C188.404 106.274 187.89 106.138 187.384 105.972C186.892 105.81 186.423 105.64 185.987 105.461C185.552 105.283 185.18 105.113 184.873 104.959L184.623 104.845L183.469 107.87L183.654 107.984C184.066 108.214 184.489 108.423 184.922 108.608C185.428 108.815 185.946 108.994 186.472 109.144C187.067 109.304 187.671 109.432 188.28 109.525C188.954 109.617 189.634 109.663 190.314 109.663C191.296 109.672 192.275 109.557 193.229 109.322C194.045 109.118 194.82 108.775 195.521 108.308C196.15 107.877 196.669 107.305 197.039 106.637C197.409 105.936 197.595 105.152 197.58 104.358C197.606 103.551 197.428 102.75 197.063 102.031C196.728 101.444 196.261 100.944 195.699 100.571Z" fill="#02173D"/>
<path d="M211.385 102.395H218.57V99.2726H211.385V95.3227H219.7V92.1758H207.85V109.322H219.805V106.183H211.385V102.395Z" fill="#02173D"/>
<path d="M228.41 95.3065H233.326V109.322H236.862V95.3065H241.795V92.1758H228.41V95.3065Z" fill="#02173D"/>
<path d="M247.309 111.998H249.997L252.322 106.418H248.883L247.309 111.998Z" fill="#02173D"/>
<path d="M288.946 94.3932C288.112 93.6606 287.136 93.1085 286.08 92.7711C284.93 92.3887 283.724 92.1996 282.512 92.2115H275.828V109.357H282.553C283.85 109.378 285.14 109.167 286.363 108.733C287.421 108.354 288.387 107.754 289.196 106.973C289.969 106.207 290.564 105.279 290.94 104.256C291.348 103.142 291.55 101.963 291.538 100.776C291.558 99.5229 291.324 98.2784 290.851 97.1184C290.421 96.0817 289.771 95.1517 288.946 94.3932ZM279.364 95.3097H282.448C283.273 95.2968 284.093 95.4342 284.87 95.7153C285.517 95.95 286.105 96.3269 286.589 96.8183C287.049 97.3065 287.397 97.8909 287.606 98.5297C287.84 99.2577 287.955 100.019 287.945 100.784C287.961 101.564 287.841 102.341 287.59 103.08C287.363 103.712 287.003 104.288 286.532 104.767C286.042 105.24 285.456 105.599 284.813 105.821C284.032 106.08 283.213 106.203 282.391 106.186H279.307L279.364 95.3097Z" fill="#02173D"/>
<path d="M305.02 92.1758H301.492V109.314H305.02V92.1758Z" fill="#02173D"/>
<path d="M322.861 104.358L317.969 92.3221L317.904 92.168H314.158L321.254 109.168L321.319 109.322H324.402L331.563 92.168H327.817L322.861 104.358Z" fill="#02173D"/>
<path d="M344.252 106.183V102.395H351.437V99.2726H344.252V95.3227H352.575V92.1758H340.725V109.322H352.68V106.183H344.252Z" fill="#02173D"/>
<path d="M170.288 46.0512C170.304 48.7813 169.845 51.4933 168.931 54.0646C168.071 56.4613 166.752 58.6657 165.048 60.5531C163.314 62.422 161.203 63.8985 158.857 64.8842C156.235 65.9866 153.416 66.5386 150.574 66.5063C147.665 66.5593 144.776 66.007 142.09 64.8842C139.731 63.8829 137.621 62.374 135.906 60.4639C134.223 58.5573 132.931 56.3358 132.104 53.9267C131.213 51.3449 130.768 48.6294 130.788 45.8971V1.62109H120.544V45.9863C120.489 50.1916 121.277 54.3649 122.861 58.2578C124.327 61.7877 126.497 64.9786 129.238 67.6337C131.986 70.2446 135.228 72.2745 138.772 73.6031C142.548 75.0082 146.547 75.7144 150.574 75.6875C154.686 75.7278 158.768 74.9933 162.61 73.522C166.156 72.1752 169.384 70.1006 172.088 67.4306C174.791 64.7605 176.911 61.5536 178.312 58.0144C179.835 54.1913 180.595 50.1043 180.548 45.9863V1.62109H170.288V46.0512Z" fill="#02173D"/>
<path d="M260.272 9.5449L260.385 9.40702V1.62891H205.717V10.7372H246.654L203.521 66.1004L203.408 66.2383L203.529 74.1705H262.419V65.0136H217.083L260.272 9.5449Z" fill="#02173D"/>
<path d="M357.629 27.7142C355.843 21.3536 352.402 15.5863 347.66 11.0063C342.873 6.37586 336.992 3.04596 330.57 1.33026C323.827 -0.443419 316.743 -0.443419 310.001 1.33026C303.602 3.03846 297.748 6.37039 293 11.0063C288.176 15.6826 284.703 21.5851 282.952 28.0861C281.201 34.5871 281.236 41.4435 283.054 47.9259C283.945 51.0998 285.256 54.1388 286.953 56.9612C288.637 59.7533 290.669 62.318 293 64.5933C295.346 66.8708 297.966 68.846 300.798 70.4736C303.69 72.1286 306.784 73.4017 310.001 74.2612C316.573 76.0549 323.496 76.1071 330.094 74.4128C336.693 72.7184 342.742 69.3354 347.652 64.5933C349.994 62.3258 352.035 59.7631 353.722 56.9693C355.421 54.144 356.735 51.1024 357.629 47.9259C359.48 41.317 359.48 34.3231 357.629 27.7142ZM347.74 45.5576C347.095 47.9581 346.136 50.2625 344.891 52.4111C343.667 54.5188 342.171 56.455 340.443 58.1697C338.718 59.8857 336.781 61.3714 334.679 62.59C332.542 63.8242 330.258 64.7808 327.882 65.4368C322.927 66.7786 317.708 66.7786 312.753 65.4368C310.391 64.7814 308.12 63.8275 305.997 62.5981C303.903 61.3737 301.975 59.8855 300.257 58.1697C298.529 56.455 297.033 54.5188 295.809 52.4111C293.591 48.5132 292.292 44.1563 292.012 39.6753C291.733 35.1942 292.479 30.7084 294.194 26.5625C295.625 23.1599 297.685 20.0609 300.265 17.4299C305.603 12.1056 312.82 9.11762 320.342 9.11762C327.864 9.11762 335.08 12.1056 340.419 17.4299C343.978 21.0656 346.528 25.5746 347.814 30.5081C349.1 35.4416 349.077 40.6275 347.749 45.5495L347.74 45.5576Z" fill="#02173D"/>
<path d="M94.3446 32.0117C95.6057 30.5203 96.6123 28.8293 97.3234 27.0074C98.0476 25.1497 98.4147 23.1709 98.4052 21.1759C98.4568 18.2772 97.8203 15.408 96.5484 12.8057C95.3601 10.4375 93.6844 8.35021 91.6322 6.68214C89.5391 5.00979 87.1587 3.73702 84.6089 2.92691C81.9714 2.06113 79.2141 1.6204 76.4394 1.62109H42.5341V23.674L50.9459 19.6186V10.0805H75.5998C78.6894 10.0964 81.6709 11.2244 84.0035 13.2599C85.1515 14.2689 86.0827 15.5025 86.7401 16.8853C87.4401 18.3498 87.7937 19.957 87.7734 21.5814C87.7872 23.1346 87.4591 24.6718 86.8128 26.0828C86.1914 27.4491 85.3144 28.6827 84.2295 29.7164C83.1164 30.7683 81.8117 31.5945 80.3869 32.1496C78.8923 32.7235 77.3049 33.0149 75.7048 33.0093H32.8388V21.7598L23.0305 17.7451V32.9769H16.3625C15.3081 31.3654 13.7645 30.1386 11.9609 29.4788C10.1574 28.8189 8.19004 28.7611 6.35118 29.314C4.51232 29.8669 2.9 31.0009 1.7537 32.5477C0.607408 34.0945 -0.0117188 35.9716 -0.0117188 37.9C-0.0117187 39.8285 0.607408 41.7055 1.7537 43.2523C2.9 44.7991 4.51232 45.9332 6.35118 46.4861C8.19004 47.039 10.1574 46.9812 11.9609 46.3213C13.7645 45.6614 15.3081 44.4346 16.3625 42.8232H23.0305V58.0631L32.8388 54.0078V42.8232H75.7048C77.3049 42.8176 78.8923 43.109 80.3869 43.6829C81.813 44.2354 83.1182 45.0619 84.2295 46.1161C85.3142 47.1469 86.1912 48.3777 86.8128 49.7416C87.4582 51.1916 87.7857 52.764 87.7732 54.3523C87.7606 55.9406 87.4083 57.5076 86.7401 58.9472C86.0807 60.3288 85.1498 61.562 84.0035 62.5726C82.847 63.5686 81.5242 64.3511 80.0963 64.8842C78.659 65.4268 77.1353 65.7016 75.5998 65.6952H50.9459V56.1409L42.5341 52.0856V74.1708H76.4394C79.213 74.1729 81.9696 73.7377 84.6089 72.8813C87.1578 72.065 89.5376 70.7898 91.6322 69.1179C93.6847 67.4534 95.3606 65.3687 96.5484 63.0025C97.8204 60.3973 98.4568 57.5254 98.4052 54.6242C98.4139 52.6292 98.0469 50.6505 97.3234 48.7926C96.6095 46.9746 95.6032 45.2867 94.3446 43.7965C92.0258 41.0955 89.0334 39.0632 85.6745 37.9081C89.0334 36.7531 92.0258 34.7208 94.3446 32.0198V32.0117Z" fill="#02173D"/>
</svg>
